<?xml version="1.0" encoding="utf-8"?>
<!-- Generator: Adobe Illustrator 28.0.0, SVG Export Plug-In . SVG Version: 6.00 Build 0)  -->
<svg version="1.1" id="Layer_2" xmlns="http://www.w3.org/2000/svg" xmlns:xlink="http://www.w3.org/1999/xlink" x="0px" y="0px"
	 viewBox="0 0 371.1 179.4" style="enable-background:new 0 0 371.1 179.4;" xml:space="preserve">
<style type="text/css">
	.st0{fill:#005157;}
</style>
<g>
	<g>
		<g>
			<path class="st0" d="M185.1,94.7h23.2V83.2h-23.2V72h27.4V59.8h-41.1v59.8h42.4v-12.2h-28.6V94.7z M97.5,88.1V88
				c4.3-1.7,7.6-7,7.6-12.9c0-9-5.1-15.2-17.7-15.2H59.8v59.8l28.1,0c12.3,0,19.6-6.3,19.6-17.4C107.5,94.7,104.2,89.7,97.5,88.1
				 M73.5,71.6h12.1c4.7,0,5.9,1.4,5.9,5.9c0,4.2-2.1,6.4-5.9,6.4H73.5V71.6z M85.4,107.8H73.5V94.3h12.7c4.8,0,6.9,1.8,6.9,6.4
				C93.1,105.6,90.2,107.8,85.4,107.8 M141.5,59.8h-24.3v59.8h13.7V71.6h10.9c5.2,0,7.1,2,7.1,7.7c0,6.4-4.3,10.2-12,10.2h-2.7
				l2.3,10.6h2.5c15.2,0,24-8.6,24-20.1C163,66.7,157.8,59.8,141.5,59.8 M271.1,78.3c-0.1-12.2-6.7-18.5-20.3-18.5h-25.5v59.8
				l13.7,0V97.9H249l10.9,21.7h15.7l-14.4-24.4C267.7,91.8,271.1,84.7,271.1,78.3 M249.9,86.8h-11l0-15.3h11.3c5,0,6.6,2,6.6,6.6
				C256.9,83.2,255.1,86.8,249.9,86.8"/>
		</g>
		<g>
			<path class="st0" d="M308.5,81.3c3.6-3.7,3.6-15,0-18.7c-3.6-3.7-14.9-3.7-18.5,0c-3.6,3.7-3.6,15,0,18.7
				C293.7,85,304.9,85,308.5,81.3"/>
			<path class="st0" d="M290,98.1c-3.6,3.7-3.6,15,0,18.7c3.6,3.7,14.9,3.7,18.5,0c3.6-3.7,3.6-15,0-18.7
				C304.9,94.4,293.7,94.4,290,98.1"/>
		</g>
	</g>
</g>
</svg>
