<svg xmlns="http://www.w3.org/2000/svg" viewBox="0 0 785.94 61.94"><g id="ed96d982-a56e-4dec-8ecd-0117bff70b99" data-name="Livello 2"><g id="af532f2f-71ce-4596-89dd-1cd6ef2952d1" data-name="Livello 1"><path d="M87.76,45.68v4.8c0,8.72-4.32,11.42-13.41,11.42-3.93,0-6.58-2-7.89-6.19C63.1,60,58,61.9,52.64,61.9c-7.78,0-11.41-3.23-11.41-12.12,0-16.47,24.33-6.8,24.33-18.22,0-5.75-3.5-8.41-8-7.67-1.58.26-1.87.67-2.24,1.66v.17c2.45.35,5.15,1.75,5.15,4.8,0,3.83-3.19,5.49-6.47,5.49-3.84,0-7.12-2.36-7.12-6.45,0-9.68,8.14-11.07,14.78-11.07C72.93,18.49,79,21.28,79,34V50.22c0,2.53.25,3.48,1.56,3.48,1.8,0,2.7-1.13,2.7-6v-2h4.51M65.39,40.46c-3.93,2.44-10.56,3-10.56,8.36,0,3.58,2.13,4.88,4.67,4.88,4.67,0,5.89-3.66,5.89-7.32Z" fill="#1d1d1b"/><path d="M438.29,45.68v4.8c0,8.72-3.11,11.42-12.2,11.42-3.94,0-7.78-2-9.1-6.19a14.87,14.87,0,0,1-12.61,6.19c-7.78,0-12.62-3.23-12.62-12.12,0-16.47,24.33-6.8,24.33-18.22,0-5.75-3.49-8.41-7.95-7.67-1.57.26-1.87.67-2.24,1.66v.17c2.45.35,5.16,1.75,5.16,4.8,0,3.83-3.2,5.49-6.47,5.49-3.85,0-7.13-2.36-7.13-6.45,0-9.68,8.15-11.07,14.78-11.07,11.23,0,17.29,2.79,17.29,15.51V50.22c0,2.53.24,3.48,1.55,3.48,1.8,0,2.71-1.13,2.71-6v-2h4.5m-22.36-5.22c-3.93,2.44-10.57,3-10.57,8.36,0,3.58,2.13,4.88,4.67,4.88,4.67,0,5.9-3.66,5.9-7.32Z" fill="#1d1d1b"/><path d="M110.75,14c0-2.18-1.15-3.48-3.2-3.48h-3V2.8h26.93c13.44,0,21.38,5.56,21.38,17.51s-7.94,19.84-23,19.84h-3.74v9.28c0,2.18,1.15,3.49,3.2,3.49h3.37v7.67h-28V52.92h2.88c2,0,3.2-1.31,3.2-3.49V14m15.39,18.53h1.77c5.73,0,9.58-6.68,9.58-12.09s-3.68-9.92-8.27-9.92h-3.08Z" fill="#1d1d1b"/><path d="M153.69,19.79h17.22v7h.16c1.64-4.19,4.75-8.28,9.59-8.28,5.08,0,9.34,4.18,9.34,9.93,0,3.75-2.71,7.76-6.56,7.76-3.44,0-6.55-1.74-6.55-5.75,0-3,1.63-6.16,4.26-5.32-.9-.28-2.29.43-2.62.5-3.32.67-7.05,7.26-7.05,13.26v11c0,2.44.58,3.75,3,3.75h1.25v7h-22v-7h1.25c2.37,0,2.94-1.31,2.94-3.75V30.52c0-2.44-.57-3.75-2.94-3.75h-1.25v-7" fill="#1d1d1b"/><path d="M229.26,40.19c0,14-7.87,21.71-20.08,21.71S189.1,54.14,189.1,40.19s7.88-21.7,20.08-21.7,20.08,7.76,20.08,21.7m-25.66,0c0,10.29.67,14.73,5.58,14.73s5.58-4.44,5.58-14.73-.66-14.73-5.58-14.73S203.6,29.91,203.6,40.19Z" fill="#1d1d1b"/><path d="M226.56,19.79H249v7h-.84c-1.39,0-2.54.26-2.54,1.31a7.76,7.76,0,0,0,.57,2.61l4,20.75h.16L254.77,31a8.86,8.86,0,0,0,.41-2.53c0-1.39-1.15-1.65-2.54-1.65h-.18v-7h14.37v7h.07c-2,0-3.36,1.65-4.18,4.18L255,60.59H239.84L232.62,31c-.82-2.53-2.05-4.18-4.59-4.18h-1.47v-7" fill="#1d1d1b"/><path d="M286.47,49.87c0,2.44.57,3.75,2.95,3.75h1.25v7H268.51v-7h1.42c2.37,0,2.95-1.31,2.95-3.75V30.52c0-2.44-.58-3.75-2.95-3.75h-1.66v-7h18.2V49.87m0-39.1a7.14,7.14,0,1,1-14.25,0,7.14,7.14,0,1,1,14.25,0Z" fill="#1d1d1b"/><path d="M387.62,49.87c0,2.44.57,3.75,2.95,3.75h1.25v7H369.67v-7h1.41c2.38,0,2.94-1.31,2.94-3.75V30.52c0-2.44-.56-3.75-2.94-3.75h-1.66v-7h18.2V49.87m0-39.1a7.14,7.14,0,1,1-14.25,0,7.14,7.14,0,1,1,14.25,0Z" fill="#1d1d1b"/><path d="M308.86,19.79v6.72H309c3.6-5.58,4.28-8,10.92-8,9.34,0,12.45,5.75,12.45,14.82V49.87c0,2.44.57,3.75,3,3.75h1v7h-20.1v-7h-.4c2.38,0,2.95-1.31,2.95-3.75v-15c0-5.06-1-7.31-3.35-7.31-3.77,0-5.93,6.38-5.93,6.17V49.87c0,2.44.36,3.75,2.74,3.75h.06v7H291.81v-7H293c2.38,0,2.95-1.31,2.95-3.75V30.52c0-2.44-.57-3.75-2.95-3.75h-1.25v-7h17.14" fill="#1d1d1b"/><path d="M370,46.47c-.33,11.16-7.78,15.43-17,15.43-12.2,0-18.2-7.15-18.2-21.71s7.72-21.7,18.2-21.7c8.77,0,17,4.53,17,14.12,0,4.62-2.7,8.54-7.29,8.54-3.93,0-7.2-1.74-7.2-6.36,0-4,2.61-6.37,6.3-6.37a6.52,6.52,0,0,0-5.6-3c-4.18,0-6.87,4.45-6.87,14.47s1.22,14.47,6.87,14.47c4.26,0,5.27-3.92,5.68-7.93H370" fill="#1d1d1b"/><path d="M688.76,19.41H706v7h.16c1.64-4.18,4.75-8.28,9.58-8.28,5.08,0,9.34,4.19,9.34,9.94,0,3.75-2.71,7.75-6.55,7.75-3.44,0-6.56-1.74-6.56-5.75,0-3,1.63-6.15,4.26-5.31-.89-.29-2.28.43-2.62.49-3.31.68-7,7.26-7,13.26v11c0,2.44.57,3.75,3,3.75h1.25v7h-22v-7H690c2.38,0,3-1.31,3-3.75V30.13c0-2.44-.57-3.75-3-3.75h-1.25v-7" fill="#1d1d1b"/><path d="M605.93,39.8c0,13.94-7.87,21.7-20.07,21.7s-20.07-7.76-20.07-21.7,7.87-21.7,20.07-21.7,20.07,7.76,20.07,21.7m-25.65,0c0,10.28.67,14.73,5.58,14.73s5.58-4.45,5.58-14.73-.67-14.73-5.58-14.73S580.28,29.52,580.28,39.8Z" fill="#1d1d1b"/><path d="M785.94,39.8c0,13.94-7.87,21.7-20.08,21.7s-20.07-7.76-20.07-21.7,7.87-21.7,20.07-21.7,20.08,7.76,20.08,21.7m-25.66,0c0,10.28.67,14.73,5.58,14.73s5.58-4.45,5.58-14.73-.67-14.73-5.58-14.73S760.28,29.52,760.28,39.8Z" fill="#1d1d1b"/><path d="M743.88,49.47c0,2.44.58,3.75,3,3.75h1.25v7H725.93v-7h1.42c2.37,0,2.94-1.31,2.94-3.75V30.13c0-2.44-.57-3.75-2.94-3.75h-1.66v-7h18.19V49.47m0-39.08a7.13,7.13,0,1,1-14.24,0,7.13,7.13,0,1,1,14.24,0Z" fill="#1d1d1b"/><path d="M621.33,19.41v6.71h.16c3.61-5.58,4.29-8,10.92-8,9.34,0,12.45,5.75,12.45,14.82V49.47c0,2.44.57,3.75,2.95,3.75h1v7h-20.1v-7h-.39c2.37,0,2.95-1.31,2.95-3.75v-15c0-5.06-1-7.31-3.35-7.31-3.77,0-5.94,6.38-5.94,6.17V49.47c0,2.44.37,3.75,2.74,3.75h.07v7H604.28v-7h1.16c2.38,0,2.95-1.31,2.95-3.75V30.13c0-2.44-.57-3.75-2.95-3.75H604.2v-7h17.13" fill="#1d1d1b"/><path d="M508.83,49.47c0,2.44.58,3.75,2.95,3.75H513v7H490.88v-7h1.42c2.37,0,2.94-1.31,2.94-3.75V30.13c0-2.44-.57-3.75-2.94-3.75h-1.66v-7h18.19V49.47m0-39.08a7.14,7.14,0,1,1-14.25,0,7.14,7.14,0,1,1,14.25,0Z" fill="#1d1d1b"/><path d="M473.46,56.08h-.17a9,9,0,0,1-8.7,5.42c-12.37,0-16.06-11.07-16.06-21.7s3.69-21.7,16.06-21.7c4.18,0,7.1,1,8.26,3l-.05.38V11.65c0-2.44-1.1-3.74-3.47-3.74h-.2v-7h17.26V49.47c0,2.44,1.1,3.75,3.48,3.75h0v7H473.46V56.08m-.13-16.63c0-8.54.75-13.85-3.83-13.85S463,30.91,463,39.45s1.88,13.94,6.47,13.94S473.33,48,473.33,39.45Z" fill="#1d1d1b"/><path d="M671.69,56.08h-.17a9,9,0,0,1-8.7,5.42c-12.37,0-16.05-11.07-16.05-21.7s3.68-21.7,16.05-21.7c4.18,0,7.1,1,8.26,3l-.05.38V11.65c0-2.44-1.09-3.74-3.47-3.74h-.19v-7h17.26V49.47c0,2.44,1.1,3.75,3.47,3.75h0v7H671.69V56.08m-.13-16.63c0-8.54.75-13.85-3.83-13.85s-6.47,5.31-6.47,13.85,1.88,13.94,6.47,13.94S671.56,48,671.56,39.45Z" fill="#1d1d1b"/><path d="M562.46,23.07h-7.54c-1.23-9.15-5.07-13.62-10.77-13.62-2.93,0-8.12,1-8.12,6.82,0,11,29.13,2.18,29.13,27,0,13.94-7.08,18.65-18.38,18.65-6.31,0-9.53-1.4-14.69-5.41L530,61.15h-6.88V38.32h7.62c1.07,9.15,5.79,14.28,13.63,14.28,4.26,0,7.31-1.3,7.31-6.26,0-12.46-29.13-2.36-29.13-27.37,0-13.53,7.22-19,20-19,5.31,0,9.79,3.42,11.66,5.73l1.47-4.1h6.8V23.07" fill="#1d1d1b"/><path d="M.08,60.59V52.91H3c2,0,3.2-1.31,3.2-3.49V13.91c0-2.18-1.15-3.49-3.2-3.49H0V2.74H27.75v7.68h-3c-2.05,0-3.2,1.31-3.2,3.49v39h2.83c9.84,0,8.92-9.5,8.92-18.92h6.93v26.6H.08" fill="#1d1d1b"/></g></g></svg>