<?xml version="1.0" encoding="utf-8"?>
<!-- Generator: Adobe Illustrator 25.2.1, SVG Export Plug-In . SVG Version: 6.00 Build 0)  -->
<svg version="1.1" id="Livello_1" xmlns="http://www.w3.org/2000/svg" xmlns:xlink="http://www.w3.org/1999/xlink" x="0px" y="0px"
	 viewBox="0 0 182.6 50.2" style="enable-background:new 0 0 182.6 50.2;" xml:space="preserve">
<style type="text/css">
	.st0{fill:#000000;}
	.st1{fill:#22A4DE;}
	.st2{fill:#0976B9;}
	.st3{fill:#39A935;}
</style>
<g>
	<g>
		<path class="st0" d="M182,47.3v-4.5h-14.9v-8.1h14.6v-4.5h-14.6v-7.6H182v-4.5h-20v29.2H182z M142.5,47.3V34.7h14.6v-4.5h-14.6
			v-7.6h14.9v-4.5h-20v29.2H142.5z M131.2,47.3V18.1h-5.1v29.2H131.2z M121.4,47.3v-4.5h-12.9V18.1h-5.1v29.2H121.4z"/>
		<path class="st0" d="M182.6,8.5c-0.8,0.4-2.6,0.7-4.3,0.7c-3,0-5.1-1.1-5.1-3.2c0-2,2.1-3.2,5.1-3.2c1.8,0,3.4,0.3,4.3,0.8V3.1
			c-1.2-0.5-2.7-0.7-4.3-0.7c-3.5,0-6.1,1.4-6.1,3.8c0,2.4,2.6,3.8,6.1,3.8c1.6,0,3.2-0.2,4.3-0.7V8.5z M146.5,9.9V2.5h-0.9v6
			l-9.3-6.2v7.5h0.9v-6L146.5,9.9z M111.5,9.8V9.1h-7.1V2.5h-0.9v7.3H111.5z"/>
		<circle class="st0" cx="124.2" cy="6.5" r="0.8"/>
		<circle class="st0" cx="159" cy="6.5" r="0.8"/>
	</g>
	<g>
		<path class="st1" d="M17.2,41.6L58.8,0H41.6L0,41.6C0,41.6,17.3,41.6,17.2,41.6z"/>
		<path class="st2" d="M59.3,0.3l-9.6,9.6l21.2,21.2h19.2C90.1,31.1,59.2,0.3,59.3,0.3z"/>
		<path class="st2" d="M90.2,31.6H71.1l-8.4,8.7l9.6,9.5C72.3,49.8,90.1,31.6,90.2,31.6z"/>
		<path class="st1" d="M53.1,31.6H33.9l18.6,18.6h19.4C71.9,50.2,53.1,31.5,53.1,31.6z"/>
		<path class="st3" d="M53.3,31.1H33.9l6.1-6.1h19.4C59.5,25,53.3,31.1,53.3,31.1z"/>
	</g>
</g>
</svg>
