<?xml version="1.0" encoding="iso-8859-1"?>
<!-- Uploaded to: SVG Repo, www.svgrepo.com, Generator: SVG Repo Mixer Tools -->
<svg height="800px" width="800px" version="1.1" id="Layer_1" xmlns="http://www.w3.org/2000/svg" xmlns:xlink="http://www.w3.org/1999/xlink" 
	 viewBox="0 0 512 512" xml:space="preserve">
<path style="fill:#818185;" d="M15.257,437.796c-5.047,0-9.769-2.496-12.61-6.669c-2.841-4.172-3.436-9.48-1.587-14.177
	l93.294-237.053c2.296-5.835,7.927-9.67,14.198-9.67c6.269,0,11.902,3.835,14.198,9.67l101.498,257.899H15.257z"/>
<circle style="fill:#FFEA8D;" cx="305.072" cy="140.989" r="66.786"/>
<path style="fill:#FFDC35;" d="M305.075,74.206v133.569c36.884,0,66.785-29.9,66.785-66.785S341.958,74.206,305.075,74.206z"/>
<path style="fill:#555559;" d="M108.551,437.796h115.695L122.749,179.898c-2.296-5.835-7.927-9.67-14.198-9.67V437.796z"/>
<path style="fill:#EFEFF0;" d="M160.49,275.795l-37.742-95.897c-2.296-5.835-7.927-9.67-14.198-9.67
	c-6.27,0-11.902,3.835-14.198,9.67L56.61,275.795l26.515-21.415l25.423,36.43l28.299-21.248L160.49,275.795z"/>
<path style="fill:#818185;" d="M110.95,437.796h231.067L239.594,257.135c-2.71-4.779-7.779-7.733-13.273-7.733
	s-10.563,2.953-13.273,7.733L110.95,437.796z"/>
<path style="fill:#DFDEE1;" d="M122.749,179.898c-2.296-5.835-7.927-9.67-14.198-9.67V290.81l28.299-21.248l23.64,6.233
	L122.749,179.898z"/>
<path style="fill:#555559;" d="M226.32,437.796h115.695L239.593,257.135c-2.71-4.779-7.779-7.733-13.273-7.733L226.32,437.796
	L226.32,437.796z"/>
<path style="fill:#EFEFF0;" d="M278.131,325.111l-38.538-67.977c-2.71-4.779-7.779-7.733-13.273-7.733s-10.563,2.953-13.273,7.733
	l-38.469,68.071l29.013-20.257l42.07,38.125L278.131,325.111z"/>
<path style="fill:#D9D8DB;" d="M239.593,257.135c-2.71-4.779-7.779-7.733-13.273-7.733v76.146l19.34,17.526l32.472-17.963
	L239.593,257.135z"/>
<path style="fill:#818185;" d="M289.808,437.773l101.59-209.376c2.202-4.539,6.355-7.97,11.328-8.819
	c6.82-1.164,13.405,2.337,16.335,8.367l92.635,190.635c1.98,11.18-5.979,19.217-15.038,19.217L289.808,437.773z"/>
<path style="fill:#555559;" d="M510.378,415.871L419.06,227.944c-2.553-5.254-7.882-8.589-13.723-8.589v218.441h91.318
	c5.257,0,10.143-2.707,12.932-7.162C512.378,426.178,512.677,420.6,510.378,415.871z"/>
<path style="fill:#EFEFF0;" d="M457.332,306.707l-38.272-78.762c-2.553-5.254-7.882-8.589-13.723-8.589
	c-5.841,0-11.17,3.335-13.723,8.589L353.38,306.75l25.06-15.939l26.897,47.271l11.229-37.077l26.294,5.701H457.332z"/>
<path style="fill:#D9D8DB;" d="M419.06,227.944c-2.553-5.254-7.882-8.589-13.723-8.589l0.019,119.475l11.209-37.825l26.294,5.701
	h14.474L419.06,227.944z"/>
</svg>